<svg width="20" height="20" viewBox="0 0 20 20" fill="none" xmlns="http://www.w3.org/2000/svg">
<path fill-rule="evenodd" clip-rule="evenodd" d="M6.22051 0.887031C7.19801 0.842031 7.50967 0.832031 9.99967 0.832031C12.4897 0.832031 12.8013 0.842865 13.778 0.887031C14.7547 0.931198 15.4213 1.08703 16.0047 1.31286C16.6155 1.5437 17.1697 1.90453 17.628 2.3712C18.0947 2.8287 18.4547 3.38203 18.6847 3.9937C18.9113 4.57703 19.0663 5.2437 19.1113 6.2187C19.1563 7.19786 19.1663 7.50953 19.1663 9.9987C19.1663 12.4887 19.1555 12.8004 19.1113 13.7779C19.0672 14.7529 18.9113 15.4195 18.6847 16.0029C18.4547 16.6146 18.0941 17.1689 17.628 17.627C17.1697 18.0937 16.6155 18.4537 16.0047 18.6837C15.4213 18.9104 14.7547 19.0654 13.7797 19.1104C12.8013 19.1554 12.4897 19.1654 9.99967 19.1654C7.50967 19.1654 7.19801 19.1545 6.22051 19.1104C5.24551 19.0662 4.57884 18.9104 3.99551 18.6837C3.38377 18.4537 2.82952 18.0931 2.37134 17.627C1.90499 17.1693 1.5441 16.6153 1.31384 16.0037C1.08801 15.4204 0.933008 14.7537 0.888008 13.7787C0.843008 12.7995 0.833008 12.4879 0.833008 9.9987C0.833008 7.5087 0.843841 7.19703 0.888008 6.22036C0.932174 5.2437 1.08801 4.57703 1.31384 3.9937C1.54444 3.3821 1.90561 2.82813 2.37217 2.37036C2.82971 1.90412 3.3834 1.54323 3.99467 1.31286C4.57801 1.08703 5.24467 0.932031 6.21967 0.887031H6.22051ZM13.7038 2.53703C12.7372 2.49286 12.4472 2.4837 9.99967 2.4837C7.55217 2.4837 7.26217 2.49286 6.29551 2.53703C5.40134 2.57786 4.91634 2.72703 4.59301 2.85286C4.16551 3.01953 3.85967 3.21703 3.53884 3.53786C3.23471 3.83374 3.00066 4.19393 2.85384 4.59203C2.72801 4.91536 2.57884 5.40036 2.53801 6.29453C2.49384 7.2612 2.48467 7.5512 2.48467 9.9987C2.48467 12.4462 2.49384 12.7362 2.53801 13.7029C2.57884 14.597 2.72801 15.082 2.85384 15.4054C3.00051 15.8029 3.23467 16.1637 3.53884 16.4595C3.83467 16.7637 4.19551 16.9979 4.59301 17.1445C4.91634 17.2704 5.40134 17.4195 6.29551 17.4604C7.26217 17.5045 7.55134 17.5137 9.99967 17.5137C12.448 17.5137 12.7372 17.5045 13.7038 17.4604C14.598 17.4195 15.083 17.2704 15.4063 17.1445C15.8338 16.9779 16.1397 16.7804 16.4605 16.4595C16.7647 16.1637 16.9988 15.8029 17.1455 15.4054C17.2713 15.082 17.4205 14.597 17.4613 13.7029C17.5055 12.7362 17.5147 12.4462 17.5147 9.9987C17.5147 7.5512 17.5055 7.2612 17.4613 6.29453C17.4205 5.40036 17.2713 4.91536 17.1455 4.59203C16.9788 4.16453 16.7813 3.8587 16.4605 3.53786C16.1646 3.23376 15.8044 2.99971 15.4063 2.85286C15.083 2.72703 14.598 2.57786 13.7038 2.53703ZM8.82884 12.8245C9.48272 13.0967 10.2108 13.1335 10.8888 12.9285C11.5667 12.7235 12.1525 12.2895 12.546 11.7006C12.9395 11.1117 13.1164 10.4044 13.0464 9.69962C12.9764 8.99481 12.6638 8.33617 12.1622 7.8362C11.8424 7.51659 11.4557 7.27187 11.03 7.11965C10.6042 6.96743 10.15 6.9115 9.70009 6.95588C9.25014 7.00026 8.81563 7.14385 8.42784 7.37631C8.04005 7.60877 7.70863 7.92432 7.45743 8.30024C7.20622 8.67616 7.0415 9.1031 6.9751 9.55033C6.90871 9.99756 6.9423 10.4539 7.07346 10.8866C7.20461 11.3193 7.43007 11.7175 7.73361 12.0526C8.03714 12.3877 8.41119 12.6514 8.82884 12.8245ZM6.66801 6.66703C7.10553 6.22951 7.62494 5.88245 8.19659 5.64567C8.76824 5.40888 9.38093 5.28701 9.99967 5.28701C10.6184 5.28701 11.2311 5.40888 11.8028 5.64567C12.3744 5.88245 12.8938 6.22951 13.3313 6.66703C13.7689 7.10455 14.1159 7.62396 14.3527 8.19561C14.5895 8.76726 14.7114 9.37995 14.7114 9.9987C14.7114 10.6174 14.5895 11.2301 14.3527 11.8018C14.1159 12.3734 13.7689 12.8928 13.3313 13.3304C12.4477 14.214 11.2493 14.7104 9.99967 14.7104C8.75006 14.7104 7.55162 14.214 6.66801 13.3304C5.78439 12.4468 5.28799 11.2483 5.28799 9.9987C5.28799 8.74908 5.78439 7.55064 6.66801 6.66703ZM15.7563 5.9887C15.8648 5.88642 15.9516 5.76343 16.0116 5.62701C16.0716 5.49059 16.1037 5.3435 16.1059 5.19447C16.108 5.04544 16.0803 4.89749 16.0242 4.75937C15.9682 4.62126 15.885 4.49579 15.7796 4.3904C15.6742 4.285 15.5488 4.20183 15.4107 4.1458C15.2726 4.08976 15.1246 4.06201 14.9756 4.06418C14.8265 4.06636 14.6795 4.09841 14.543 4.15844C14.4066 4.21848 14.2836 4.30528 14.1813 4.4137C13.9824 4.62456 13.8735 4.90463 13.8778 5.19447C13.882 5.48431 13.999 5.7611 14.204 5.96607C14.4089 6.17104 14.6857 6.28805 14.9756 6.29228C15.2654 6.29651 15.5455 6.18761 15.7563 5.9887Z" fill="black" fill-opacity="0.65"/>
</svg>
