<svg width="20" height="20" viewBox="0 0 20 20" fill="none" xmlns="http://www.w3.org/2000/svg">
<path d="M16.1356 8.21703C16.2062 8.2146 16.2766 8.2264 16.3425 8.25173C16.4084 8.27707 16.4686 8.31542 16.5194 8.3645C16.5702 8.41357 16.6106 8.47238 16.6382 8.5374C16.6658 8.60242 16.68 8.67233 16.68 8.74297C16.68 8.8136 16.6658 8.88351 16.6382 8.94854C16.6106 9.01356 16.5702 9.07236 16.5194 9.12144C16.4686 9.17052 16.4084 9.20887 16.3425 9.2342C16.2766 9.25954 16.2062 9.27134 16.1356 9.2689H14.6737V10.2064H16.1356C16.2066 10.2029 16.2776 10.2139 16.3443 10.2387C16.4109 10.2635 16.4718 10.3016 16.5233 10.3506C16.5748 10.3996 16.6158 10.4586 16.6438 10.524C16.6718 10.5893 16.6862 10.6597 16.6862 10.7308C16.6862 10.8019 16.6718 10.8722 16.6438 10.9376C16.6158 11.0029 16.5748 11.0619 16.5233 11.111C16.4718 11.16 16.4109 11.1981 16.3443 11.2228C16.2776 11.2476 16.2066 11.2586 16.1356 11.2552H14.15C14.0112 11.2547 13.8782 11.1992 13.7802 11.1009C13.6822 11.0027 13.627 10.8696 13.6269 10.7308V6.75578C13.6269 6.46641 13.8612 6.22891 14.15 6.22891H16.1394C16.2743 6.23588 16.4014 6.2945 16.4944 6.39263C16.5873 6.49077 16.6389 6.62088 16.6385 6.75602C16.6381 6.89116 16.5857 7.02096 16.4922 7.11854C16.3987 7.21612 16.2712 7.27398 16.1362 7.28016H14.6744V8.21766L16.1356 8.21703ZM12.9269 10.7302C12.9257 10.8694 12.8697 11.0025 12.7709 11.1006C12.6721 11.1986 12.5386 11.2537 12.3994 11.2539C12.317 11.2547 12.2355 11.2363 12.1614 11.2002C12.0873 11.1641 12.0226 11.1112 11.9725 11.0458L9.93812 8.27891V10.7295C9.93812 10.8686 9.88288 11.002 9.78454 11.1003C9.6862 11.1987 9.55282 11.2539 9.41375 11.2539C9.27468 11.2539 9.1413 11.1987 9.04296 11.1003C8.94462 11.002 8.88937 10.8686 8.88937 10.7295V6.75453C8.88937 6.53016 9.03625 6.32891 9.2475 6.25703C9.29967 6.2386 9.35468 6.22951 9.41 6.23016C9.5725 6.23016 9.7225 6.31828 9.82312 6.44203L11.8737 9.21516V6.75453C11.8737 6.46516 12.1081 6.22766 12.3981 6.22766C12.6881 6.22766 12.9256 6.46516 12.9256 6.75453L12.9269 10.7302ZM8.14188 10.7302C8.14121 10.8696 8.08533 11.003 7.98645 11.1013C7.88758 11.1996 7.75379 11.2547 7.61437 11.2545C7.476 11.2534 7.34368 11.1976 7.24619 11.0994C7.14869 11.0012 7.09391 10.8685 7.09375 10.7302V6.75516C7.09375 6.46578 7.32812 6.22828 7.61812 6.22828C7.9075 6.22828 8.1425 6.46578 8.1425 6.75516L8.14188 10.7302ZM6.0875 11.2545H4.09812C3.95886 11.2542 3.82535 11.199 3.72659 11.1008C3.62782 11.0026 3.57178 10.8694 3.57062 10.7302V6.75516C3.57062 6.46578 3.80813 6.22828 4.09812 6.22828C4.38812 6.22828 4.6225 6.46578 4.6225 6.75516V10.2058H6.0875C6.22657 10.2058 6.35995 10.261 6.45829 10.3594C6.55663 10.4577 6.61188 10.5911 6.61188 10.7302C6.61188 10.8692 6.55663 11.0026 6.45829 11.1009C6.35995 11.1993 6.22657 11.2545 6.0875 11.2545ZM20 8.59078C20 4.11516 15.5106 0.472656 10 0.472656C4.48937 0.472656 0 4.11516 0 8.59078C0 12.6014 3.55813 15.9608 8.3625 16.5989C8.68812 16.667 9.13062 16.8139 9.245 17.0908C9.34562 17.3408 9.31 17.7283 9.2775 17.9927L9.14062 18.842C9.10125 19.0927 8.93875 19.8289 10.0131 19.3795C11.0906 18.9302 15.7781 15.9814 17.8775 13.5652C19.3131 11.9933 20 10.3783 20 8.59078Z" fill="black" fill-opacity="0.65"/>
</svg>
