<svg width="20" height="20" viewBox="0 0 20 20" fill="none" xmlns="http://www.w3.org/2000/svg">
<path fill-rule="evenodd" clip-rule="evenodd" d="M19.1354 2.60204C19.2494 2.48816 19.3399 2.35293 19.4016 2.20408C19.4634 2.05524 19.4952 1.89568 19.4953 1.73453C19.4954 1.57338 19.4638 1.41378 19.4022 1.26486C19.3406 1.11593 19.2503 0.980596 19.1364 0.866574C19.0226 0.752551 18.8873 0.662076 18.7385 0.600314C18.5896 0.538552 18.4301 0.506713 18.2689 0.506614C18.1078 0.506515 17.9482 0.538158 17.7993 0.599737C17.6503 0.661316 17.515 0.751625 17.401 0.865507L10.0004 8.26604L2.60204 0.865507C2.37176 0.635228 2.05944 0.505859 1.73377 0.505859C1.40811 0.505859 1.09579 0.635228 0.865507 0.865507C0.635228 1.09579 0.505859 1.40811 0.505859 1.73377C0.505859 2.05944 0.635228 2.37176 0.865507 2.60204L8.26604 10.0004L0.865507 17.3988C0.751485 17.5129 0.661037 17.6482 0.599329 17.7972C0.53762 17.9462 0.505859 18.1059 0.505859 18.2671C0.505859 18.4284 0.53762 18.588 0.599329 18.737C0.661037 18.886 0.751485 19.0214 0.865507 19.1354C1.09579 19.3657 1.40811 19.495 1.73377 19.495C1.89503 19.495 2.0547 19.4633 2.20368 19.4016C2.35265 19.3398 2.48802 19.2494 2.60204 19.1354L10.0004 11.7348L17.401 19.1354C17.6313 19.3654 17.9435 19.4945 18.2689 19.4943C18.5944 19.4941 18.9064 19.3646 19.1364 19.1343C19.3664 18.904 19.4955 18.5918 19.4953 18.2664C19.4951 17.9409 19.3657 17.6288 19.1354 17.3988L11.7348 10.0004L19.1354 2.60204Z" fill="url(#paint0_linear_656_700)"/>
<defs>
<linearGradient id="paint0_linear_656_700" x1="0.505859" y1="3.2186" x2="14.0695" y2="19.4952" gradientUnits="userSpaceOnUse">
<stop stop-color="#97886F"/>
<stop offset="0.450893" stop-color="#DBC181"/>
<stop offset="1" stop-color="#9B9167"/>
</linearGradient>
</defs>
</svg>
