<svg width="20" height="20" viewBox="0 0 20 20" fill="none" xmlns="http://www.w3.org/2000/svg">
<path d="M1.71259 19.1654C1.59676 19.165 1.48212 19.1419 1.37523 19.0973C1.26833 19.0526 1.17128 18.9874 1.0896 18.9052C1.00792 18.8231 0.943224 18.7257 0.899198 18.6185C0.855173 18.5114 0.832683 18.3966 0.833011 18.2808V1.71661C0.833011 1.22786 1.22676 0.832031 1.71259 0.832031H18.2872C18.7726 0.832031 19.1663 1.22786 19.1663 1.71661V18.2808C19.1667 18.3966 19.1442 18.5114 19.1002 18.6185C19.0561 18.7257 18.9914 18.8231 18.9098 18.9052C18.8281 18.9874 18.731 19.0526 18.6241 19.0973C18.5172 19.1419 18.4026 19.165 18.2868 19.1654H1.71218H1.71259Z" stroke="black" stroke-opacity="0.65" stroke-linecap="round" stroke-linejoin="round"/>
<path fill-rule="evenodd" clip-rule="evenodd" d="M16.1089 7.45172H14.0806C13.8105 7.45172 13.5515 7.55901 13.3605 7.74998C13.1695 7.94096 13.0623 8.19997 13.0623 8.47005V10.5076H16.1089L15.6631 13.5626H13.0623V19.1655H9.711V13.5626H6.94434V10.508H9.67559L9.711 7.60838L9.701 6.56922C9.69764 6.21815 9.76389 5.8699 9.89592 5.54459C10.0279 5.21928 10.2231 4.92336 10.4702 4.67392C10.7173 4.42449 11.0113 4.2265 11.3354 4.09138C11.6594 3.95626 12.007 3.8867 12.3581 3.88672H16.1089V7.45172Z" fill="black" fill-opacity="0.65"/>
</svg>
