<svg width="24" height="24" viewBox="0 0 24 24" fill="none" xmlns="http://www.w3.org/2000/svg">
<path d="M21.5625 7H3.1875C3.08437 7 3 7.08437 3 7.1875V8.6875C3 8.79062 3.08437 8.875 3.1875 8.875H21.5625C21.6656 8.875 21.75 8.79062 21.75 8.6875V7.1875C21.75 7.08437 21.6656 7 21.5625 7ZM21.5625 14.3125H3.1875C3.08437 14.3125 3 14.3969 3 14.5V16C3 16.1031 3.08437 16.1875 3.1875 16.1875H21.5625C21.6656 16.1875 21.75 16.1031 21.75 16V14.5C21.75 14.3969 21.6656 14.3125 21.5625 14.3125Z" fill="url(#paint0_linear_656_572)"/>
<defs>
<linearGradient id="paint0_linear_656_572" x1="3" y1="8.3125" x2="7.67003" y2="19.7493" gradientUnits="userSpaceOnUse">
<stop stop-color="#97886F"/>
<stop offset="0.450893" stop-color="#DBC181"/>
<stop offset="1" stop-color="#9B9167"/>
</linearGradient>
</defs>
</svg>
